<svg width="645" height="274" viewBox="0 0 645 274" fill="none" xmlns="http://www.w3.org/2000/svg">
<path d="M141.688 107.08V146.842C141.688 152.169 142.973 156.054 145.542 158.498C148.111 160.879 151.433 162.07 155.506 162.07C159.642 162.07 162.963 160.817 165.47 158.31C168.039 155.803 169.324 151.981 169.324 146.842V107.08H181.638V147.782C181.638 154.675 179.288 160.441 174.588 165.078C169.888 169.653 163.527 171.971 155.506 172.034C147.485 172.097 141.124 169.809 136.424 165.172C131.787 160.472 129.468 154.675 129.468 147.782L129.374 107.08H141.688ZM250.906 107.08V171H238.686L209.076 128.23V171H196.95V107.08H209.076L238.686 149.756V107.08H250.906ZM278.841 107.08V171H266.715V107.08H278.841ZM287.29 107.08H338.99L340.964 116.668H319.062V171H306.748V116.668H287.29V107.08ZM394.077 171H349.333V107.08H387.497L389.377 116.668H361.459V133.87H378.567L380.541 143.552H361.459V161.506H392.103L394.077 171ZM423.506 117.232H415.986V136.784H423.694C427.329 136.784 430.337 136.063 432.718 134.622C435.099 133.118 436.29 130.674 436.29 127.29C436.29 123.718 435.162 121.149 432.906 119.582C430.65 118.015 427.517 117.232 423.506 117.232ZM440.99 171L427.454 146.56C426.765 146.623 426.044 146.685 425.292 146.748C424.54 146.748 423.788 146.748 423.036 146.748H415.986V171H403.86V107.08H423.882C430.838 107.08 436.791 108.678 441.742 111.874C446.693 115.07 449.168 120.021 449.168 126.726C449.168 130.674 448.134 134.089 446.066 136.972C444.061 139.792 441.46 141.985 438.264 143.552L453.962 171H440.99ZM490.241 151.636L474.919 131.99V171H462.793V107.08H470.501L492.121 136.596L511.767 107.08H519.193V171H506.879V134.152L494.941 150.978L490.241 151.636Z" fill="#F20403"/>
<path d="M156.5 65.6068C66 79.1068 -33.9 191.507 156.5 197.107L69.5 217.107C62.3333 217.773 39.6 204.907 6 148.107C24.1835 138.273 60.8405 101.607 62 33.6068C63.1595 -34.3932 125.483 26.6068 156.5 65.6068Z" fill="#4D63C6"/>
<path d="M486 207.524C576.5 194.024 676.4 81.6242 486 76.0242L573 56.0242C580.167 55.3575 602.9 68.2242 636.5 125.024C618.317 134.858 581.66 171.524 580.5 239.524C579.341 307.524 517.017 246.524 486 207.524Z" fill="#4D63C6"/>
</svg>
